# xmcd
#
# Track frame offsets:
#	150
#	16464
#	30930
#	47246
#	63241
#	84645
#	99561
#	114910
#	130448
#	145281
#	160387
#	180104
#	194177
#	209120
#	232089
#	252405
#	267366
#	298099
#	310262
#	326672
#
# Disc length: 4629 seconds
#
# Revision: 2
# Processed by: cddbd v1.5.2PL0 Copyright (c) Steve Scherf et al.
# Submitted via: EasyCDDAExtractor 15.3.0.1
#
DISCID=31121314
DTITLE=Rocio Durcal - Me Gustas Mucho - Todos Los Grandes Exitos - CD 2
DYEAR=2005
DGENRE=Latin
TTITLE0=La Gata Bajo La Lluvia
TTITLE1=Fue Tan Poco Tu Cariño
TTITLE2=No Lastimes Mas
TTITLE3=Poquito Olvido, Mucho Corazon
TTITLE4=El Destino (Con Juan Gabriel)
TTITLE5=Se Me Olvido Otra Vez
TTITLE6=Contigo Aprendi (En Directo) (Con Armando Manzanero Al Piano)
TTITLE7=La Muerte Del Palomo
TTITLE8=Vestida De Blanco
TTITLE9=Caramelito
TTITLE10=Como Tu Mujer
TTITLE11=Cuando Yo Quiera Has De Volver
TTITLE12=Volver A Verte
TTITLE13=Te Amo
TTITLE14=La Verdad De La Verdad
TTITLE15=Jamas Te Dejare
TTITLE16=Amor Eterno
TTITLE17=La Media Vuelta
TTITLE18=Dama, Dama
TTITLE19=Costumbres
EXTD=YEAR: 2005
EXTT0=
EXTT1=
EXTT2=
EXTT3=
EXTT4=
EXTT5=
EXTT6=
EXTT7=
EXTT8=
EXTT9=
EXTT10=
EXTT11=
EXTT12=
EXTT13=
EXTT14=
EXTT15=
EXTT16=
EXTT17=
EXTT18=
EXTT19=
PLAYORDER=
